<?xml version="1.0" standalone="no"?><!DOCTYPE svg PUBLIC "-//W3C//DTD SVG 1.1//EN" "http://www.w3.org/Graphics/SVG/1.1/DTD/svg11.dtd"><svg t="1632189496557" class="icon" viewBox="0 0 1024 1024" version="1.1" xmlns="http://www.w3.org/2000/svg" p-id="1356" xmlns:xlink="http://www.w3.org/1999/xlink" width="200" height="200"><defs><style type="text/css"></style></defs><path d="M512.91718 0.006583c59.608789-0.804536 47.248193 59.901347 47.248193 117.023389a162.73565 162.73565 0 0 1-5.339192 69.628916 45.273424 45.273424 0 0 1-33.278526 20.332814 37.301205 37.301205 0 0 1-22.527002-4.827215c-32.766549-16.675833-23.624097-65.825656-23.624097-113.07385a199.012901 199.012901 0 0 1 2.121049-62.168675C484.465869 9.807291 495.65623 7.320544 512.91718 0.006583zM208.144391 102.402048a47.467612 47.467612 0 0 1 31.084338 9.654429l59.535649 73.139619a190.894403 190.894403 0 0 1 31.084338 40.15365 42.932956 42.932956 0 0 1-17.699788 51.197733 47.83331 47.83331 0 0 1-48.272148-2.706166 223.587813 223.587813 0 0 1-36.569809-43.883771l-32.693409-40.15365c-15.066761-19.381999-39.641673-42.05528-16.090716-72.335083 7.313962-9.58129 16.968391-10.020128 29.255847-14.993621z m610.057555 14.627924c30.71864-0.585117 60.120766 22.96584 46.663076 56.244366a169.245076 169.245076 0 0 1-32.181432 39.129696l-41.323884 46.077959a131.066196 131.066196 0 0 1-25.233168 27.354217 48.637846 48.637846 0 0 1-45.054005 2.121049 43.883771 43.883771 0 0 1-16.090716-58.511694l40.811907-45.565983 32.181432-35.911552a108.173495 108.173495 0 0 1 24.136074-25.160029l16.090716-5.924309z m-43.883771 751.217017H248.883159V627.471366a555.129701 555.129701 0 0 1 8.045358-139.84295 257.012618 257.012618 0 0 1 119.144438-154.324594 280.344156 280.344156 0 0 1 86.889866-32.693409l33.278526-3.218143 30.57236-0.511978a439.276546 439.276546 0 0 1 62.753793 10.751524 257.232037 257.232037 0 0 1 176.559038 179.9966 553.813188 553.813188 0 0 1 8.045358 138.965275v241.36074zM36.266289 376.163638a147.156912 147.156912 0 0 1 38.617718 5.92431l70.799151 13.896527a103.49256 103.49256 0 0 1 47.76017 14.993622 44.322609 44.322609 0 0 1 8.557335 52.002268 45.273424 45.273424 0 0 1-29.255847 20.332814 86.15847 86.15847 0 0 1-38.105741-4.827215l-70.79915-13.896527a133.626082 133.626082 0 0 1-49.88122-14.627924 43.883771 43.883771 0 0 1-1.609071-63.19263 91.9365 91.9365 0 0 1 23.916655-10.605245z m941.672583 21.429909a42.347839 42.347839 0 0 1 37.593764 66.99589c-12.068037 16.310135-33.059107 15.725018-57.414601 20.332814l-71.896244 10.751523a96.544296 96.544296 0 0 1-37.008647 3.730121 43.883771 43.883771 0 0 1-31.084338-23.550957 43.006095 43.006095 0 0 1 20.405954-55.732389 175.973921 175.973921 0 0 1 34.887598-6.436286l71.384267-11.263502 33.278526-4.827214zM197.173449 903.939123h514.025236c65.313679 0 122.435721-11.702339 148.107726 31.084337a53.465061 53.465061 0 0 1 7.313962 35.911553c-11.117222 65.09426-80.45358 52.002268-153.958896 52.002268H236.595703a180.06974 180.06974 0 0 1-54.196457-3.218143 60.486464 60.486464 0 0 1-31.669455-86.816727 63.19263 63.19263 0 0 1 29.255847-24.648051l17.699788-4.315237z" p-id="1357"></path></svg>