<?xml version="1.0" standalone="no"?><!DOCTYPE svg PUBLIC "-//W3C//DTD SVG 1.1//EN" "http://www.w3.org/Graphics/SVG/1.1/DTD/svg11.dtd"><svg t="1632392114336" class="icon" viewBox="0 0 1024 1024" version="1.1" xmlns="http://www.w3.org/2000/svg" p-id="7797" xmlns:xlink="http://www.w3.org/1999/xlink" width="200" height="200"><defs><style type="text/css"></style></defs><path d="M949.663677 661.906441l40.88271 66.772656c2.194063 3.656772 0.950761 8.33744-2.779146 10.531503L496.882173 1024 5.850835 739.2106a7.53295 7.53295 0 0 1-2.779147-10.531503l40.882711-66.772656a8.044898 8.044898 0 0 1 10.824045-2.706011l441.957459 256.412849 442.030594-256.339714a8.044898 8.044898 0 0 1 10.824045 2.706011v-0.073135z m0-186.129693l40.88271 66.772656a7.459815 7.459815 0 0 1 0.877626 5.850835 7.679221 7.679221 0 0 1-3.656772 4.680669l-490.885068 284.789399L5.850835 553.080908a7.679221 7.679221 0 0 1-3.656772-4.680669 7.459815 7.459815 0 0 1 0.877625-5.850835l40.882711-66.772656a8.044898 8.044898 0 0 1 10.824045-2.706011l441.957459 256.485985 442.030594-256.485985a8.044898 8.044898 0 0 1 10.824045 2.706011zM467.847404 11.805523a88.274475 88.274475 0 0 1 88.20134 0l439.83653 255.242682a55.582934 55.582934 0 0 1 28.010874 47.903713 55.582934 55.582934 0 0 1-28.010874 47.976848L556.048744 618.171448a88.055069 88.055069 0 0 1-88.20134 0L28.010873 363.001901A55.582934 55.582934 0 0 1 0 315.025053a55.582934 55.582934 0 0 1 28.010873-47.976848L467.847404 11.878658z m44.173805 82.789317L132.155738 315.025053 512.021209 535.455267l379.792336-220.357078-379.792336-220.357078z" p-id="7798"></path></svg>