<?xml version="1.0" standalone="no"?><!DOCTYPE svg PUBLIC "-//W3C//DTD SVG 1.1//EN" "http://www.w3.org/Graphics/SVG/1.1/DTD/svg11.dtd"><svg t="1630647445361" class="icon" viewBox="0 0 1024 1024" version="1.1" xmlns="http://www.w3.org/2000/svg" p-id="15344" xmlns:xlink="http://www.w3.org/1999/xlink" width="128" height="128"><defs><style type="text/css"></style></defs><path d="M908.288 788.821333c12.629333-21.504 35.498667-32.768 57.002667-30.037333 3.072-13.312 4.778667-27.306667 4.778666-41.642667 0-12.629333-1.365333-24.917333-3.754666-36.864-21.845333 2.730667-45.056-8.533333-57.685334-30.378666-12.629333-22.186667-10.581333-48.469333 3.413334-65.877334-19.114667-17.749333-42.325333-31.744-68.266667-39.936-7.850667 21.162667-29.696 36.181333-55.637333 36.181334-25.6 0-47.786667-15.018667-55.637334-36.181334-25.258667 8.192-48.469333 21.845333-67.584 39.594667 13.994667 17.408 16.042667 43.690667 3.072 65.877333-12.629333 21.845333-35.84 33.109333-57.685333 30.037334-2.730667 12.288-3.754667 24.917333-3.754667 37.888 0 13.994667 1.706667 27.989333 4.778667 40.96 21.504-2.389333 44.373333 8.874667 56.661333 30.378666 12.288 21.162667 10.922667 46.08-1.365333 63.488 19.456 17.408 42.325333 30.72 67.925333 38.570667 8.874667-19.114667 29.696-32.768 53.930667-32.768 24.234667 0 45.056 13.312 53.930667 32.768 25.258667-7.850667 48.128-21.162667 67.242666-38.229333-12.288-17.749333-13.653333-42.666667-1.365333-63.829334z m-120.149333 7.168c-43.690667 0-79.189333-35.498667-79.189334-79.189333 0-43.690667 35.498667-79.189333 79.189334-79.189333 43.690667 0 79.189333 35.498667 79.189333 79.189333 0 43.690667-35.498667 79.189333-79.189333 79.189333z m0 0" p-id="15345"></path><path d="M550.570667 708.949333c0-3.413333 0-6.485333 0.341333-9.898666h-358.4c-25.941333 0-46.762667-20.821333-46.762667-46.762667v-46.762667h429.056c37.888-75.776 116.053333-127.658667 206.506667-127.658666 51.2 0 98.304 16.725333 136.533333 44.714666V232.106667c0-51.541333-41.984-93.184-93.525333-93.184h-631.466667c-51.541333 0-93.525333 41.642667-93.525333 93.184v420.522666c0 51.541333 41.984 93.525333 93.525333 93.525334h234.154667V839.68h-46.762667c-12.970667 0-23.210667 10.581333-23.210666 23.210667 0 12.970667 10.581333 23.210667 23.210666 23.210666h253.269334c-50.517333-42.325333-82.944-106.154667-82.944-177.152z" p-id="15346"></path></svg>