<?xml version="1.0" standalone="no"?><!DOCTYPE svg PUBLIC "-//W3C//DTD SVG 1.1//EN" "http://www.w3.org/Graphics/SVG/1.1/DTD/svg11.dtd"><svg t="1632214304919" class="icon" viewBox="0 0 1024 1024" version="1.1" xmlns="http://www.w3.org/2000/svg" p-id="3383" xmlns:xlink="http://www.w3.org/1999/xlink" width="200" height="200"><defs><style type="text/css"></style></defs><path d="M812.5 117c-79.1-34-185.8-52.7-300.3-52.7C397.6 64.3 291 83 211.9 117c-81.1 34.8-125.7 82.6-125.7 134.5v519.6c0 51.9 44.7 99.6 125.7 134.5 79.1 34 185.8 52.7 300.3 52.7s221.2-18.7 300.3-52.7c81.1-34.8 125.7-82.6 125.7-134.5V251.5c0-51.9-44.6-99.7-125.7-134.5z m-47.4 228.4C694.5 369.6 600 384 512.2 384c-89.1 0-181.3-14.1-252.9-38.6-75.2-25.8-116.7-59.2-116.7-94s41.4-68.2 116.7-94c71.6-24.6 163.8-38.6 252.9-38.6 87.8 0 182.4 14.4 252.9 38.6 75.2 25.8 116.7 59.2 116.7 94-0.1 34.9-41.5 68.2-116.7 94z m0 159.9C694.5 529.5 600 544 512.2 544c-89.1 0-181.3-14.1-252.9-38.6-75.2-25.8-116.7-59.2-116.7-94v-64.7c35.9 27.5 87.6 50.3 150.1 66.3 65.5 16.8 141.4 25.6 219.4 25.6S666 429.7 731.5 413c62.5-16 114.3-38.9 150.1-66.3v64.7c0.1 34.8-41.3 68.1-116.5 93.9z m0 179.9c-70.6 24.2-165.1 38.6-252.9 38.6-89.1 0-181.3-14.1-252.9-38.6-75.2-25.8-116.7-59.2-116.7-94v-84.7c35.9 27.5 87.6 50.3 150.1 66.3 65.5 16.8 141.4 25.6 219.4 25.6s153.9-8.9 219.4-25.6c62.5-16 114.3-38.9 150.1-66.3v84.7c0.1 34.8-41.3 68.2-116.5 94zM512.2 903.7c-89.1 0-181.3-14.1-252.9-38.6-75.2-25.8-116.7-59.2-116.7-94v-84.7c35.9 27.5 87.6 50.3 150.1 66.3 65.5 16.8 141.4 25.6 219.4 25.6s153.9-8.9 219.4-25.6c62.5-16 114.3-38.9 150.1-66.3v84.7c0 34.8-41.4 68.2-116.7 94-70.4 24.2-164.9 38.6-252.7 38.6z m0 0" p-id="3384"></path></svg>