<?xml version="1.0" standalone="no"?><!DOCTYPE svg PUBLIC "-//W3C//DTD SVG 1.1//EN" "http://www.w3.org/Graphics/SVG/1.1/DTD/svg11.dtd"><svg t="1632215318839" class="icon" viewBox="0 0 1024 1024" version="1.1" xmlns="http://www.w3.org/2000/svg" p-id="14197" xmlns:xlink="http://www.w3.org/1999/xlink" width="200" height="200"><defs><style type="text/css"></style></defs><path d="M317.2352 399.5648v224.8704L512 736.9216l194.7648-112.4864V399.5648L512 287.0784 317.2352 399.5648zM430.9504 97.9968v93.5936L512 238.336l81.0496-46.7456V97.9968L512 51.2l-81.0496 46.7968zM112.4352 279.7056V373.248l81.0496 46.7968 81.0496-46.7968V279.7056l-81.0496-46.7968-81.0496 46.7968zM112.4352 645.9392v93.5424l81.0496 46.7968 81.0496-46.7968v-93.5424l-81.0496-46.7968-81.0496 46.7968zM432.8448 835.7888v93.5936l81.0496 46.7968 81.0496-46.7968v-93.5936l-81.0496-46.7968-81.0496 46.7968zM752.4864 285.1328v93.5936l81.0496 46.7968 81.0496-46.7968V285.1328l-81.0496-46.7968-81.0496 46.7968zM752.4864 645.9392v93.5424l81.0496 46.7968 81.0496-46.7968v-93.5424l-81.0496-46.7968-81.0496 46.7968z" p-id="14198"></path><path d="M512 262.7072m-15.36 0a15.36 15.36 0 1 0 30.72 0 15.36 15.36 0 1 0-30.72 0Z" p-id="14199"></path><path d="M295.8848 388.5056m-15.36 0a15.36 15.36 0 1 0 30.72 0 15.36 15.36 0 1 0-30.72 0Z" p-id="14200"></path><path d="M295.8848 631.9616m-15.36 0a15.36 15.36 0 1 0 30.72 0 15.36 15.36 0 1 0-30.72 0Z" p-id="14201"></path><path d="M513.8944 762.9312m-15.36 0a15.36 15.36 0 1 0 30.72 0 15.36 15.36 0 1 0-30.72 0Z" p-id="14202"></path><path d="M729.6512 637.2864m-15.36 0a15.36 15.36 0 1 0 30.72 0 15.36 15.36 0 1 0-30.72 0Z" p-id="14203"></path><path d="M729.6512 393.0112m-15.36 0a15.36 15.36 0 1 0 30.72 0 15.36 15.36 0 1 0-30.72 0Z" p-id="14204"></path></svg>