<?xml version="1.0" standalone="no"?><!DOCTYPE svg PUBLIC "-//W3C//DTD SVG 1.1//EN" "http://www.w3.org/Graphics/SVG/1.1/DTD/svg11.dtd"><svg t="1631863772360" class="icon" viewBox="0 0 1024 1024" version="1.1" xmlns="http://www.w3.org/2000/svg" p-id="26536" xmlns:xlink="http://www.w3.org/1999/xlink" width="128" height="128"><defs><style type="text/css"></style></defs><path d="M183.565272 564.12742L127.92005 748.332292l-51.16802-183.565271H31.340412C22.386009 642.798251 12.792005 725.946284 10.233604 814.850718H51.16802c0-63.960025 0-127.92005 5.116802-191.880075l53.086821 191.880075h35.178013l51.807621-191.880075c6.396002 63.960025 7.035603 124.722049 7.675203 191.880075h44.772017c0-75.472829-12.152405-159.260462-21.746408-250.723298zM361.374141 630.006246a708.037477 708.037477 0 0 1-26.22361 149.666459 223.220487 223.220487 0 0 0-7.675203-42.853217l-29.421612-106.813242H255.8401l40.294816 142.630856a197.636477 197.636477 0 0 1 9.594003 42.853217 26.86321 26.86321 0 0 1-4.477201 19.188007 34.538413 34.538413 0 0 1-25.58401 10.233604h-15.350406v30.700812a49.888819 49.888819 0 0 0 22.386008 6.396003c22.386009 0 43.492817-15.990006 63.960025-48.609619a634.483448 634.483448 0 0 0 59.482824-202.113679zM699.722673 220.662086a147.747658 147.747658 0 0 0 8.954404 12.152405l5.756402 14.710806a19.188007 19.188007 0 0 0 5.756402-15.350406 59.482823 59.482823 0 0 1 0-6.396003s-5.116802-4.477202-7.035602-7.035603a47.330418 47.330418 0 0 0-13.431606 1.918801z" fill="#13607C" p-id="26537"></path><path d="M1008.649594 569.244222l-8.314803-8.954403a140.712055 140.712055 0 0 0-27.502811-30.700812c-8.314803-6.396002-26.86321-15.990006-30.700812-26.863211 5.756402 0 12.792005 0 18.548407-4.477201s17.269207 0 26.223611-5.116802l12.792005-3.837602c-4.477202-5.116802-8.314803-12.792005-12.792005-17.908807a347.302936 347.302936 0 0 0-44.132418-37.096814 231.53529 231.53529 0 0 0-27.50281-15.350406c-3.198001 0-8.314803 0-10.233604-5.756403A127.92005 127.92005 0 0 1 895.44035 383.76015c-7.675203-17.269207-14.710806-34.538413-21.746409-52.447221a276.946908 276.946908 0 0 0-13.431605-34.538413 283.982511 283.982511 0 0 0-102.33604-113.209244 138.153654 138.153654 0 0 0-34.538413-12.792005H703.560275c-3.837601 0-8.314803-7.675203-12.152405-10.233604-15.350406-10.873204-54.366021-34.538413-63.960025 0-7.035603 19.188007 10.233604 38.376015 16.629607 48.609619a135.595253 135.595253 0 0 1 13.431605 23.025609c0 5.116802 0 10.233604 4.477202 15.990006a272.469706 272.469706 0 0 0 14.071205 40.294816 107.452842 107.452842 0 0 0 9.594004 19.188007s5.756402 4.477202 6.396002 10.233604a76.75203 76.75203 0 0 0-5.756402 22.386009 152.86446 152.86446 0 0 0 7.675203 102.33604c4.477202 7.035603 14.071205 23.665209 27.502811 17.269207s9.594004-22.386009 13.431605-37.736415v-8.314803l10.233604 24.944409a154.78326 154.78326 0 0 0 34.538414 40.934416c6.396002 5.116802 11.512804 14.710806 19.827607 17.908807l-6.396002-6.396002a191.880075 191.880075 0 0 1-14.071206-17.908807 410.62336 410.62336 0 0 1-29.421611-55.005622 279.505309 279.505309 0 0 1-11.512805-29.421611s0-8.954403-4.477201-10.873204a220.662086 220.662086 0 0 0-12.792005 20.467208 198.915678 198.915678 0 0 0-7.035603 46.051218c-8.314803 0-11.512804-12.792005-14.710806-21.106809a149.026858 149.026858 0 0 1 0-80.589631c0-6.396002 9.594004-26.22361 6.396003-32.619613s-7.035603-8.954403-9.594004-13.431605a113.209244 113.209244 0 0 1-9.594004-19.827608c-6.396002-16.629606-9.594004-35.817614-16.629606-52.44722a166.296065 166.296065 0 0 0-13.431606-23.025609 144.549656 144.549656 0 0 1-16.629606-24.94441s-3.198001-8.954403 0-12.152405a5.756402 5.756402 0 0 1 0-4.477202h16.629606a134.316052 134.316052 0 0 1 26.223611 15.350406c3.837601 0 7.675203 8.314803 12.792005 9.594004H703.560275c8.314803 0 17.908807 0 25.58401 3.837602a182.925671 182.925671 0 0 1 38.376015 20.467208 259.677701 259.677701 0 0 1 82.508432 103.61524c3.198001 7.035603 4.477202 13.431605 7.675203 20.467208s12.152405 30.061212 17.908807 44.772018a195.078076 195.078076 0 0 0 19.188008 40.294815c3.837601 6.396002 19.827608 10.233604 26.86321 12.792005s13.431605 5.756402 17.908807 8.954404a212.347283 212.347283 0 0 1 26.863211 20.467208c4.477202 0 17.269207 10.873204 18.548407 16.629606a106.173641 106.173641 0 0 0-51.80762 8.954404c-3.837601 0-10.233604 0-10.873205 7.675203s0 5.756402 4.477202 9.594004a98.498438 98.498438 0 0 0 13.431605 18.548407l17.269207 14.071205c10.233604 7.035603 21.746408 11.512804 31.980013 18.548408l17.908807 14.071205s4.477202 6.396002 8.314803 7.675203a42.213616 42.213616 0 0 1-7.035603-7.035603z" fill="#13607C" p-id="26538"></path><path d="M876.252342 775.835103v-211.068082h-42.853216v250.723298h104.25484v-39.655216h-61.401624zM767.5203 798.221112a92.742036 92.742036 0 0 0 10.233604-11.512805 171.412867 171.412867 0 0 0 25.58401-101.696439c0-83.148032-28.782011-124.082448-85.706434-124.082449a77.39163 77.39163 0 0 0-63.960025 31.340412 172.692067 172.692067 0 0 0-25.58401 101.69644 161.179263 161.179263 0 0 0 23.025609 96.579638 71.635228 71.635228 0 0 0 63.960025 28.142411 100.417239 100.417239 0 0 0 28.782012-4.477202l52.44722 34.538414 14.710806-28.142411z m-51.80762-23.665209a36.457214 36.457214 0 0 1-33.898814-19.827608 150.306059 150.306059 0 0 1-11.512804-67.797627c0-54.366021 14.710806-81.868832 43.492817-81.868832a35.817614 35.817614 0 0 1 33.898813 19.827608 147.108057 147.108057 0 0 1 11.512805 67.158026c-1.918801 54.366021-16.629606 82.508432-45.411618 82.508433zM583.315428 692.687071l-46.690818-30.061212a49.249219 49.249219 0 0 1-24.94441-38.376015 30.061212 30.061212 0 0 1 11.512804-22.386009 33.898813 33.898813 0 0 1 26.223611-8.954403 104.894441 104.894441 0 0 1 42.213616 13.431605L596.747033 575.640225a88.264834 88.264834 0 0 0-55.645222-18.548407A63.960025 63.960025 0 0 0 492.492192 575.640225a88.904435 88.904435 0 0 0-24.304809 55.645222 63.960025 63.960025 0 0 0 24.94441 53.726421l46.051218 29.421611a47.330418 47.330418 0 0 1 25.58401 38.376015 36.457214 36.457214 0 0 1-11.512805 28.142411c-7.675203 6.396002-16.629606 3.837601-25.58401 3.198001a110.650843 110.650843 0 0 1-47.330418-16.629606l-8.954404 28.142411a101.056839 101.056839 0 0 0 63.960025 23.025609 74.193629 74.193629 0 0 0 55.005622-19.827608 70.356027 70.356027 0 0 0 20.467208-52.44722 63.960025 63.960025 0 0 0-27.502811-53.726421z" fill="#F68122" p-id="26539"></path></svg>