<?xml version="1.0" standalone="no"?><!DOCTYPE svg PUBLIC "-//W3C//DTD SVG 1.1//EN" "http://www.w3.org/Graphics/SVG/1.1/DTD/svg11.dtd"><svg t="1629871775193" class="icon" viewBox="0 0 1024 1024" version="1.1" xmlns="http://www.w3.org/2000/svg" p-id="813" xmlns:xlink="http://www.w3.org/1999/xlink" width="128" height="128"><defs><style type="text/css"></style></defs><path d="M673.426 690.834c-26.624 0-51.712 6.071-74.167 16.823l-129.682-127.78a163.547 163.547 0 0 0 0-136.631l129.17-127.269c22.455 10.972 47.836 17.189 74.606 17.189 93.477 0 169.253-74.533 169.253-166.62C842.606 74.606 766.903 0 673.426 0 580.023 0 504.32 74.533 504.32 166.546c0 22.309 4.462 43.52 12.58 62.903L384.732 359.717a171.154 171.154 0 0 0-69.412-14.629c-93.33-0.073-169.033 74.46-169.033 166.473 0 92.014 75.703 166.62 169.106 166.62 24.722 0 48.201-5.267 69.413-14.629l132.388 130.34a163.84 163.84 0 0 0-12.873 63.562c0 91.94 75.703 166.546 169.106 166.546s169.18-74.533 169.18-166.546c0-91.868-75.703-166.547-169.107-166.547l-0.073-0.073z" p-id="814"></path></svg>