<?xml version="1.0" standalone="no"?><!DOCTYPE svg PUBLIC "-//W3C//DTD SVG 1.1//EN" "http://www.w3.org/Graphics/SVG/1.1/DTD/svg11.dtd"><svg t="1632214525130" class="icon" viewBox="0 0 1024 1024" version="1.1" xmlns="http://www.w3.org/2000/svg" p-id="7429" xmlns:xlink="http://www.w3.org/1999/xlink" width="200" height="200"><defs><style type="text/css"></style></defs><path d="M976.571 915.37h-85.03a36.302 36.302 0 0 0-35.52 32.797h119.908l-12.875 21.171H856.055a36.181 36.181 0 0 0 35.522 33.491h95.441l-12.997 20.997h-83.034c-34.134 0-56.623-28.979-56.623-64.726s22.559-64.727 56.623-64.727l98.148-0.173zM513.247 304.545l-1.406-0.174h-0.434c-2.724 0-5.38 0-8.069-0.173-7.86 0-15.722-0.174-23.444-0.52-7.201-0.174-14.212-0.695-21.257-1.215-3.263-0.174-6.56-0.347-9.787-0.694-7.844-0.695-15.514-1.562-23.15-2.43l-6.94-0.694c-7.896-1.041-15.618-2.256-23.253-3.47l-5.831-1.042c-7.67-1.215-15.201-2.776-22.559-4.338l-5.466-1.041c-7.219-1.736-14.299-3.297-21.223-5.206l-6.073-1.562c-6.438-1.735-12.807-3.644-18.95-5.553-2.863-0.868-5.64-1.909-8.433-2.776-5.05-1.736-10.187-3.47-15.01-5.38a233.571 233.571 0 0 1-16.156-6.42c-1.84-0.694-4.217-1.562-5.987-2.256-49.925-22.212-84.214-51.192-98.721-83.815v-11.974c0-0.52 1.024-1.04 1.04-1.562a66.653 66.653 0 0 1-0.26-10.064C171.879 68.197 323.979 0 511.547 0S851.3 68.197 851.3 152.186v2.43a56.467 56.467 0 0 1 1.51 9.196v14.403c-32.641 71.842-171.43 126.33-339.511 126.33z m-0.885 41.82c168.046 0 307.72-54.314 340.361-126.33v114.357C823.692 407.97 681.623 464.02 511.06 464.02c-167.508 0-307.39-53.968-340.032-125.636V217.78c29.05 73.056 171.517 128.586 341.386 128.586zM235.529 959.1c0 35.747-22.559 64.726-56.622 64.726H91.309c-34.151 0-56.623-28.979-56.623-64.726s22.559-64.727 56.623-64.727h87.598c34.185 0 56.674 28.806 56.674 64.727z m-180.714 0a38.801 38.801 0 0 0 36.442 43.73h87.597a44.458 44.458 0 0 0 0-87.46H91.257a38.801 38.801 0 0 0-36.39 43.73z m332.605-26.377a37.587 37.587 0 0 1-36.701 38.524h-14.56l52.06 52.58h-29.275l-72.71-73.75h64.467a17.353 17.353 0 0 0 0-34.707h-80.396V1024h-22.68V894.2l103.076 0.173a37.552 37.552 0 0 1 36.771 38.35z m103.632-32.45L565.774 1024H541.29l-60.961-101.168-26.03 42.688h47.756l-12.529 21.171h-47.807L419.384 1024h-24.52l74.115-123.38a13.015 13.015 0 0 1 22.143-0.347z m120.985-5.9l98.131-0.173-12.546 21.17h-85.03a44.441 44.441 0 0 0 0 87.46h95.442l-12.98 20.996h-83.017c-34.15 0-56.657-28.979-56.657-64.726s22.507-64.727 56.71-64.727zM511.06 621.931c-167.508 0-307.39-54.141-340.032-125.635V380.378C203.67 451.872 343.57 505.84 511.06 505.84c170.51 0 312.649-55.877 341.663-129.454v115.918c-28.98 73.577-171.048 129.627-341.61 129.627z m341.663 19.956c0 2.43-0.382 4.859-0.382 7.288 0 86.418-152.914 156.35-340.604 156.35s-340.24-69.932-340.24-156.35c0-2.429-0.469-4.858-0.469-7.288v-103.77C203.67 609.783 343.57 663.751 511.06 663.751c170.51 0 312.649-55.877 341.663-129.453v107.588zM746.211 1002.83h87.615L820.95 1024h-94.938V894.2h20.199v108.63z" p-id="7430"></path></svg>