<?xml version="1.0" standalone="no"?><!DOCTYPE svg PUBLIC "-//W3C//DTD SVG 1.1//EN" "http://www.w3.org/Graphics/SVG/1.1/DTD/svg11.dtd"><svg t="1630033556894" class="icon" viewBox="0 0 1024 1024" version="1.1" xmlns="http://www.w3.org/2000/svg" p-id="838" xmlns:xlink="http://www.w3.org/1999/xlink" width="128" height="128"><defs><style type="text/css"></style></defs><path d="M919.488 277.312a156.928 156.928 0 0 0-140.8-57.6 418.112 418.112 0 0 0-110.976 14.912C631.424 117.312 576 42.624 512 42.624s-119.488 74.688-155.712 192a418.112 418.112 0 0 0-110.912-14.912 156.928 156.928 0 0 0-140.8 57.6C81.088 315.712 108.864 422.4 189.888 512 108.8 601.536 72.512 689.024 104.512 746.624s74.688 57.6 140.8 57.6a418.112 418.112 0 0 0 110.912-14.912c36.288 117.312 91.712 192 155.712 192s119.488-74.688 155.712-192a418.112 418.112 0 0 0 110.912 14.912 156.928 156.928 0 0 0 140.8-57.6c23.488-38.4-4.288-145.088-85.312-234.688 81.152-89.6 117.44-177.024 85.44-234.624zM512 106.624c23.488 0 64 49.088 93.888 145.088A829.888 829.888 0 0 0 512 285.824a829.824 829.824 0 0 0-93.888-34.112c29.888-96 70.4-145.088 93.888-145.088z m128 405.312c0 29.888-2.112 57.6-4.288 83.2l-55.488 36.288-68.288 34.112-68.224-34.112-55.488-36.288c-2.112-25.6-4.288-53.312-4.288-83.2s2.112-57.6 4.288-83.2l55.488-36.288L512 358.336l68.288 34.112 55.488 36.288c2.112 25.6 4.224 53.376 4.224 83.2z m64-36.288l40.512 36.288L704 548.224z m-76.8 202.688l-6.4 32-32-10.688 23.488-12.8z m-192 21.312l-32 10.688-6.4-32 14.912 8.512zM320 548.224l-40.512-36.288L320 475.648v72.576z m76.8-202.688l6.4-32 32 10.688-23.488 12.8z m215.488-8.512l-23.488-12.8 32-10.688 6.4 32zM160 309.312a111.872 111.872 0 0 1 85.312-25.6 396.8 396.8 0 0 1 96 12.8c-6.4 29.888-10.688 61.888-14.912 96a819.2 819.2 0 0 0-91.712 74.624C168.512 394.624 147.2 332.736 160 309.312z m85.312 430.912a111.872 111.872 0 0 1-85.312-25.6c-10.688-14.912 8.512-85.312 74.688-157.888a819.2 819.2 0 0 0 91.712 74.688c4.288 34.112 8.512 66.112 14.912 96a396.8 396.8 0 0 1-96 12.8zM512 917.312c-23.488 0-64-49.088-93.888-145.088A829.888 829.888 0 0 0 512 738.112a829.824 829.824 0 0 0 93.888 34.112c-29.888 96-70.4 145.088-93.888 145.088z m352-202.688a111.872 111.872 0 0 1-85.312 25.6 396.8 396.8 0 0 1-96-12.8c6.4-29.888 10.688-61.888 14.912-96a819.2 819.2 0 0 0 91.712-74.688c66.176 72.576 87.488 134.4 74.688 157.888z m-74.688-247.488a819.2 819.2 0 0 0-91.712-74.688 1149.696 1149.696 0 0 0-14.912-96 396.8 396.8 0 0 1 96-12.8 111.872 111.872 0 0 1 85.312 25.6c10.688 14.976-8.512 85.376-74.688 157.888z" p-id="839"></path><path d="M448 511.936a64 64 0 1 0 128 0 64 64 0 1 0-128 0z" p-id="840"></path></svg>