<?xml version="1.0" standalone="no"?><!DOCTYPE svg PUBLIC "-//W3C//DTD SVG 1.1//EN" "http://www.w3.org/Graphics/SVG/1.1/DTD/svg11.dtd"><svg t="1633424276791" class="icon" viewBox="0 0 1024 1024" version="1.1" xmlns="http://www.w3.org/2000/svg" p-id="2529" xmlns:xlink="http://www.w3.org/1999/xlink" width="200" height="200"><defs><style type="text/css"></style></defs><path d="M832 787.2L313.6 251.733333 204.8 138.666667 149.333333 194.133333l119.466667 119.466667c-23.466667 42.666667-34.133333 91.733333-34.133333 145.066667v213.333333l-85.333334 85.333333v42.666667h586.666667l85.333333 85.333333L874.666667 832l-42.666667-44.8z m-341.333333 140.8c46.933333 0 85.333333-38.4 85.333333-85.333333h-170.666667c0 46.933333 38.4 85.333333 85.333334 85.333333z m256-311.466667v-157.866666c0-130.133333-70.4-241.066667-192-268.8V160c0-36.266667-27.733333-64-64-64s-64 27.733333-64 64v29.866667c-6.4 2.133333-12.8 2.133333-19.2 4.266666-4.266667 2.133333-8.533333 2.133333-12.8 4.266667-10.666667 4.266667-19.2 8.533333-29.866667 14.933333L746.666667 616.533333z" p-id="2530"></path></svg>