<?xml version="1.0" standalone="no"?><!DOCTYPE svg PUBLIC "-//W3C//DTD SVG 1.1//EN" "http://www.w3.org/Graphics/SVG/1.1/DTD/svg11.dtd"><svg t="1633672188628" class="icon" viewBox="0 0 1024 1024" version="1.1" xmlns="http://www.w3.org/2000/svg" p-id="2917" xmlns:xlink="http://www.w3.org/1999/xlink" width="200" height="200"><defs><style type="text/css"></style></defs><path d="M861.8 722.9c-28.4-28.4-61.2-51.1-96.7-67.5 50.7-41 83-103.6 83-173.9 0-123.9-103.4-225.5-227.3-223.6-122.1 1.9-220.4 101.3-220.4 223.6 0 70.2 32.4 132.8 83 173.9-35.5 16.4-68.1 39-96.7 67.5-61.1 61.2-95.8 141.9-98 228-0.1 5 3.9 9.2 9 9.2H951c5 0 9.1-4.1 9-9.2-2.2-86.2-36.9-166.9-98.2-228z" p-id="2918"></path><path d="M382.1 638.3c-36.5-37.6-56.4-115.5-56.4-193.8 0-134 135.4-264.9 265.6-271.4C551.4 107 478.3 62.8 396.1 64 274 65.9 175.7 165.3 175.7 287.6c0 70.2 32.4 132.8 83 173.9-35.5 16.4-68.1 39-96.7 67.5-61.1 61.2-95.8 141.9-98 228-0.1 5 3.9 9.2 9 9.2h178.9c10.1-17.9 22.2-35.4 36.8-52.6 28.5-33.9 55-57 93.4-75.3z" p-id="2919"></path></svg>